<svg xmlns="http://www.w3.org/2000/svg" viewBox="0 0 1540 475" role="img"><title>Funk Blues · C · 演奏 01 · 5–8 — performance tablature</title><rect width="100%" height="100%" fill="#fffdf5"/><g font-family="Arial,sans-serif" fill="#17251c"><text x="26" y="29" font-size="19" font-weight="600">Funk Blues · C · 演奏 01 · 5–8 · 97 BPM · 4/4</text><line x1="68" y1="83" x2="1516" y2="83" stroke="#69766a" stroke-width="1"/><text x="31" y="88" font-size="16">e</text><line x1="68" y1="106" x2="1516" y2="106" stroke="#69766a" stroke-width="1"/><text x="31" y="111" font-size="16">B</text><line x1="68" y1="129" x2="1516" y2="129" stroke="#69766a" stroke-width="1"/><text x="31" y="134" font-size="16">G</text><line x1="68" y1="152" x2="1516" y2="152" stroke="#69766a" stroke-width="1"/><text x="31" y="157" font-size="16">D</text><line x1="68" y1="175" x2="1516" y2="175" stroke="#69766a" stroke-width="1"/><text x="31" y="180" font-size="16">A</text><line x1="68" y1="198" x2="1516" y2="198" stroke="#69766a" stroke-width="1"/><text x="31" y="203" font-size="16">E</text><line x1="68.0" y1="73" x2="68.0" y2="205" stroke="#334435" stroke-width="1.5"/><text x="77.0" y="231" font-size="13" fill="#60705d">1</text><line x1="249.0" y1="73" x2="249.0" y2="205" stroke="#d6dccf" stroke-width="0.7"/><text x="258.0" y="231" font-size="13" fill="#60705d">2</text><line x1="430.0" y1="73" x2="430.0" y2="205" stroke="#d6dccf" stroke-width="0.7"/><text x="439.0" y="231" font-size="13" fill="#60705d">3</text><line x1="611.0" y1="73" x2="611.0" y2="205" stroke="#d6dccf" stroke-width="0.7"/><text x="620.0" y="231" font-size="13" fill="#60705d">4</text><line x1="792.0" y1="73" x2="792.0" y2="205" stroke="#334435" stroke-width="1.5"/><text x="801.0" y="231" font-size="13" fill="#60705d">1</text><line x1="973.0" y1="73" x2="973.0" y2="205" stroke="#d6dccf" stroke-width="0.7"/><text x="982.0" y="231" font-size="13" fill="#60705d">2</text><line x1="1154.0" y1="73" x2="1154.0" y2="205" stroke="#d6dccf" stroke-width="0.7"/><text x="1163.0" y="231" font-size="13" fill="#60705d">3</text><line x1="1335.0" y1="73" x2="1335.0" y2="205" stroke="#d6dccf" stroke-width="0.7"/><text x="1344.0" y="231" font-size="13" fill="#60705d">4</text><line x1="1516.0" y1="73" x2="1516.0" y2="205" stroke="#334435" stroke-width="1.5"/><text x="76.0" y="58" font-size="20" font-weight="600">F</text><text x="752.0" y="58" font-size="13" fill="#60705d">5</text><text x="800.0" y="58" font-size="20" font-weight="600">F</text><text x="1476.0" y="58" font-size="13" fill="#60705d">6</text><line x1="68.00" y1="136" x2="76.07" y2="136" stroke="#4f917a" stroke-width="3" opacity=".42"/><rect x="56.00" y="118" width="25" height="22" rx="4" fill="#fffdf5"/><text x="68.00" y="136" text-anchor="middle" font-size="20" font-weight="600">3</text><line x1="162.71" y1="182" x2="254.43" y2="182" stroke="#4f917a" stroke-width="3" opacity=".42"/><rect x="150.71" y="164" width="25" height="22" rx="4" fill="#fffdf5"/><text x="162.71" y="182" text-anchor="middle" font-size="20" font-weight="600">0</text><line x1="255.63" y1="182" x2="877.33" y2="182" stroke="#4f917a" stroke-width="3" opacity=".42"/><rect x="243.63" y="164" width="25" height="22" rx="4" fill="#fffdf5"/><text x="255.63" y="182" text-anchor="middle" font-size="20" font-weight="600">3</text><line x1="256.90" y1="136" x2="326.54" y2="136" stroke="#4f917a" stroke-width="3" opacity=".42"/><rect x="244.90" y="118" width="25" height="22" rx="4" fill="#fffdf5"/><text x="256.90" y="136" text-anchor="middle" font-size="20" font-weight="600">2</text><line x1="334.30" y1="136" x2="876.17" y2="136" stroke="#4f917a" stroke-width="3" opacity=".42"/><rect x="322.30" y="118" width="25" height="22" rx="4" fill="#fffdf5"/><text x="334.30" y="136" text-anchor="middle" font-size="20" font-weight="600">2</text><line x1="888.47" y1="182" x2="980.20" y2="182" stroke="#4f917a" stroke-width="3" opacity=".42"/><rect x="876.47" y="164" width="25" height="22" rx="4" fill="#fffdf5"/><text x="888.47" y="182" text-anchor="middle" font-size="20" font-weight="600">0</text><line x1="984.56" y1="182" x2="1504.34" y2="182" stroke="#4f917a" stroke-width="3" opacity=".42"/><rect x="972.56" y="164" width="25" height="22" rx="4" fill="#fffdf5"/><text x="984.56" y="182" text-anchor="middle" font-size="20" font-weight="600">3</text><line x1="1064.26" y1="136" x2="1502.51" y2="136" stroke="#4f917a" stroke-width="3" opacity=".42"/><rect x="1052.26" y="118" width="25" height="22" rx="4" fill="#fffdf5"/><text x="1064.26" y="136" text-anchor="middle" font-size="20" font-weight="600">2</text><line x1="68" y1="288" x2="1516" y2="288" stroke="#69766a" stroke-width="1"/><text x="31" y="293" font-size="16">e</text><line x1="68" y1="311" x2="1516" y2="311" stroke="#69766a" stroke-width="1"/><text x="31" y="316" font-size="16">B</text><line x1="68" y1="334" x2="1516" y2="334" stroke="#69766a" stroke-width="1"/><text x="31" y="339" font-size="16">G</text><line x1="68" y1="357" x2="1516" y2="357" stroke="#69766a" stroke-width="1"/><text x="31" y="362" font-size="16">D</text><line x1="68" y1="380" x2="1516" y2="380" stroke="#69766a" stroke-width="1"/><text x="31" y="385" font-size="16">A</text><line x1="68" y1="403" x2="1516" y2="403" stroke="#69766a" stroke-width="1"/><text x="31" y="408" font-size="16">E</text><line x1="68.0" y1="278" x2="68.0" y2="410" stroke="#334435" stroke-width="1.5"/><text x="77.0" y="436" font-size="13" fill="#60705d">1</text><line x1="249.0" y1="278" x2="249.0" y2="410" stroke="#d6dccf" stroke-width="0.7"/><text x="258.0" y="436" font-size="13" fill="#60705d">2</text><line x1="430.0" y1="278" x2="430.0" y2="410" stroke="#d6dccf" stroke-width="0.7"/><text x="439.0" y="436" font-size="13" fill="#60705d">3</text><line x1="611.0" y1="278" x2="611.0" y2="410" stroke="#d6dccf" stroke-width="0.7"/><text x="620.0" y="436" font-size="13" fill="#60705d">4</text><line x1="792.0" y1="278" x2="792.0" y2="410" stroke="#334435" stroke-width="1.5"/><text x="801.0" y="436" font-size="13" fill="#60705d">1</text><line x1="973.0" y1="278" x2="973.0" y2="410" stroke="#d6dccf" stroke-width="0.7"/><text x="982.0" y="436" font-size="13" fill="#60705d">2</text><line x1="1154.0" y1="278" x2="1154.0" y2="410" stroke="#d6dccf" stroke-width="0.7"/><text x="1163.0" y="436" font-size="13" fill="#60705d">3</text><line x1="1335.0" y1="278" x2="1335.0" y2="410" stroke="#d6dccf" stroke-width="0.7"/><text x="1344.0" y="436" font-size="13" fill="#60705d">4</text><line x1="1516.0" y1="278" x2="1516.0" y2="410" stroke="#334435" stroke-width="1.5"/><text x="76.0" y="263" font-size="20" font-weight="600">C</text><text x="752.0" y="263" font-size="13" fill="#60705d">7</text><text x="800.0" y="263" font-size="20" font-weight="600">C</text><text x="1476.0" y="263" font-size="13" fill="#60705d">8</text><line x1="166.00" y1="387" x2="213.57" y2="387" stroke="#4f917a" stroke-width="3" opacity=".42"/><rect x="154.00" y="369" width="25" height="22" rx="4" fill="#fffdf5"/><text x="166.00" y="387" text-anchor="middle" font-size="20" font-weight="600">5</text><line x1="169.83" y1="341" x2="212.29" y2="341" stroke="#4f917a" stroke-width="3" opacity=".42"/><rect x="157.83" y="323" width="25" height="22" rx="4" fill="#fffdf5"/><text x="169.83" y="341" text-anchor="middle" font-size="20" font-weight="600">5</text><line x1="213.33" y1="341" x2="332.24" y2="341" stroke="#4f917a" stroke-width="3" opacity=".42"/><rect x="201.33" y="323" width="25" height="22" rx="4" fill="#fffdf5"/><text x="213.33" y="341" text-anchor="middle" font-size="20" font-weight="600">8</text><line x1="214.18" y1="387" x2="324.59" y2="387" stroke="#4f917a" stroke-width="3" opacity=".42"/><rect x="202.18" y="369" width="25" height="22" rx="4" fill="#fffdf5"/><text x="214.18" y="387" text-anchor="middle" font-size="20" font-weight="600">8</text><line x1="325.93" y1="387" x2="466.91" y2="387" stroke="#4f917a" stroke-width="3" opacity=".42"/><rect x="313.93" y="369" width="25" height="22" rx="4" fill="#fffdf5"/><text x="325.93" y="387" text-anchor="middle" font-size="20" font-weight="600">6</text><line x1="333.33" y1="341" x2="469.22" y2="341" stroke="#4f917a" stroke-width="3" opacity=".42"/><rect x="321.33" y="323" width="25" height="22" rx="4" fill="#fffdf5"/><text x="333.33" y="341" text-anchor="middle" font-size="20" font-weight="600">6</text><line x1="354.97" y1="364" x2="417.82" y2="364" stroke="#4f917a" stroke-width="3" opacity=".42"/><rect x="342.97" y="346" width="25" height="22" rx="4" fill="#fffdf5"/><text x="354.97" y="364" text-anchor="middle" font-size="20" font-weight="600">6</text><line x1="467.79" y1="387" x2="1018.15" y2="387" stroke="#4f917a" stroke-width="3" opacity=".42"/><rect x="455.79" y="369" width="25" height="22" rx="4" fill="#fffdf5"/><text x="467.79" y="387" text-anchor="middle" font-size="20" font-weight="600">5</text><line x1="469.27" y1="341" x2="501.54" y2="341" stroke="#4f917a" stroke-width="3" opacity=".42"/><rect x="457.27" y="323" width="25" height="22" rx="4" fill="#fffdf5"/><text x="469.27" y="341" text-anchor="middle" font-size="20" font-weight="600">5</text><line x1="1260.35" y1="341" x2="1328.30" y2="341" stroke="#4f917a" stroke-width="3" opacity=".42"/><rect x="1248.35" y="323" width="25" height="22" rx="4" fill="#fffdf5"/><text x="1260.35" y="341" text-anchor="middle" font-size="20" font-weight="600">5</text><line x1="1328.59" y1="341" x2="1411.83" y2="341" stroke="#4f917a" stroke-width="3" opacity=".42"/><rect x="1316.59" y="323" width="25" height="22" rx="4" fill="#fffdf5"/><text x="1328.59" y="341" text-anchor="middle" font-size="20" font-weight="600">4</text><line x1="1418.80" y1="341" x2="1479.95" y2="341" stroke="#4f917a" stroke-width="3" opacity=".42"/><rect x="1406.80" y="323" width="25" height="22" rx="4" fill="#fffdf5"/><text x="1418.80" y="341" text-anchor="middle" font-size="20" font-weight="600">3</text><line x1="1504.44" y1="341" x2="1516.00" y2="341" stroke="#4f917a" stroke-width="3" opacity=".42"/><rect x="1492.44" y="323" width="25" height="22" rx="4" fill="#fffdf5"/><text x="1504.44" y="341" text-anchor="middle" font-size="20" font-weight="600">0</text><line x1="1508.11" y1="318" x2="1516.00" y2="318" stroke="#4f917a" stroke-width="3" opacity=".42"/><rect x="1496.11" y="300" width="25" height="22" rx="4" fill="#fffdf5"/><text x="1508.11" y="318" text-anchor="middle" font-size="20" font-weight="600">0</text><text x="26" y="463" font-size="13" fill="#60705d">GuitarSet · CC BY 4.0 · 按原始标注制谱；横向位置表示演奏时刻，绿色线表示延音。</text></g></svg>