<svg xmlns="http://www.w3.org/2000/svg" viewBox="0 0 1540 475" role="img"><title>Funk Blues · C · 演奏 01 · 9–12 — performance tablature</title><rect width="100%" height="100%" fill="#fffdf5"/><g font-family="Arial,sans-serif" fill="#17251c"><text x="26" y="29" font-size="19" font-weight="600">Funk Blues · C · 演奏 01 · 9–12 · 97 BPM · 4/4</text><line x1="68" y1="83" x2="1516" y2="83" stroke="#69766a" stroke-width="1"/><text x="31" y="88" font-size="16">e</text><line x1="68" y1="106" x2="1516" y2="106" stroke="#69766a" stroke-width="1"/><text x="31" y="111" font-size="16">B</text><line x1="68" y1="129" x2="1516" y2="129" stroke="#69766a" stroke-width="1"/><text x="31" y="134" font-size="16">G</text><line x1="68" y1="152" x2="1516" y2="152" stroke="#69766a" stroke-width="1"/><text x="31" y="157" font-size="16">D</text><line x1="68" y1="175" x2="1516" y2="175" stroke="#69766a" stroke-width="1"/><text x="31" y="180" font-size="16">A</text><line x1="68" y1="198" x2="1516" y2="198" stroke="#69766a" stroke-width="1"/><text x="31" y="203" font-size="16">E</text><line x1="68.0" y1="73" x2="68.0" y2="205" stroke="#334435" stroke-width="1.5"/><text x="77.0" y="231" font-size="13" fill="#60705d">1</text><line x1="249.0" y1="73" x2="249.0" y2="205" stroke="#d6dccf" stroke-width="0.7"/><text x="258.0" y="231" font-size="13" fill="#60705d">2</text><line x1="430.0" y1="73" x2="430.0" y2="205" stroke="#d6dccf" stroke-width="0.7"/><text x="439.0" y="231" font-size="13" fill="#60705d">3</text><line x1="611.0" y1="73" x2="611.0" y2="205" stroke="#d6dccf" stroke-width="0.7"/><text x="620.0" y="231" font-size="13" fill="#60705d">4</text><line x1="792.0" y1="73" x2="792.0" y2="205" stroke="#334435" stroke-width="1.5"/><text x="801.0" y="231" font-size="13" fill="#60705d">1</text><line x1="973.0" y1="73" x2="973.0" y2="205" stroke="#d6dccf" stroke-width="0.7"/><text x="982.0" y="231" font-size="13" fill="#60705d">2</text><line x1="1154.0" y1="73" x2="1154.0" y2="205" stroke="#d6dccf" stroke-width="0.7"/><text x="1163.0" y="231" font-size="13" fill="#60705d">3</text><line x1="1335.0" y1="73" x2="1335.0" y2="205" stroke="#d6dccf" stroke-width="0.7"/><text x="1344.0" y="231" font-size="13" fill="#60705d">4</text><line x1="1516.0" y1="73" x2="1516.0" y2="205" stroke="#334435" stroke-width="1.5"/><text x="76.0" y="58" font-size="20" font-weight="600">G</text><text x="752.0" y="58" font-size="13" fill="#60705d">9</text><text x="800.0" y="58" font-size="20" font-weight="600">F</text><text x="1476.0" y="58" font-size="13" fill="#60705d">10</text><line x1="68.00" y1="136" x2="161.76" y2="136" stroke="#4f917a" stroke-width="3" opacity=".42"/><rect x="56.00" y="118" width="25" height="22" rx="4" fill="#fffdf5"/><text x="68.00" y="136" text-anchor="middle" font-size="20" font-weight="600">0</text><line x1="68.00" y1="113" x2="172.22" y2="113" stroke="#4f917a" stroke-width="3" opacity=".42"/><rect x="56.00" y="95" width="25" height="22" rx="4" fill="#fffdf5"/><text x="68.00" y="113" text-anchor="middle" font-size="20" font-weight="600">0</text><line x1="162.53" y1="136" x2="230.47" y2="136" stroke="#4f917a" stroke-width="3" opacity=".42"/><rect x="150.53" y="118" width="25" height="22" rx="4" fill="#fffdf5"/><text x="162.53" y="136" text-anchor="middle" font-size="20" font-weight="600">3</text><line x1="233.77" y1="136" x2="782.43" y2="136" stroke="#4f917a" stroke-width="3" opacity=".42"/><rect x="221.77" y="118" width="25" height="22" rx="4" fill="#fffdf5"/><text x="233.77" y="136" text-anchor="middle" font-size="20" font-weight="600">0</text><line x1="336.22" y1="113" x2="788.06" y2="113" stroke="#4f917a" stroke-width="3" opacity=".42"/><rect x="324.22" y="95" width="25" height="22" rx="4" fill="#fffdf5"/><text x="336.22" y="113" text-anchor="middle" font-size="20" font-weight="600">0</text><line x1="794.70" y1="136" x2="888.13" y2="136" stroke="#4f917a" stroke-width="3" opacity=".42"/><rect x="782.70" y="118" width="25" height="22" rx="4" fill="#fffdf5"/><text x="794.70" y="136" text-anchor="middle" font-size="20" font-weight="600">0</text><line x1="888.27" y1="136" x2="983.39" y2="136" stroke="#4f917a" stroke-width="3" opacity=".42"/><rect x="876.27" y="118" width="25" height="22" rx="4" fill="#fffdf5"/><text x="888.27" y="136" text-anchor="middle" font-size="20" font-weight="600">3</text><line x1="989.82" y1="136" x2="1511.30" y2="136" stroke="#4f917a" stroke-width="3" opacity=".42"/><rect x="977.82" y="118" width="25" height="22" rx="4" fill="#fffdf5"/><text x="989.82" y="136" text-anchor="middle" font-size="20" font-weight="600">0</text><line x1="1070.61" y1="113" x2="1508.85" y2="113" stroke="#4f917a" stroke-width="3" opacity=".42"/><rect x="1058.61" y="95" width="25" height="22" rx="4" fill="#fffdf5"/><text x="1070.61" y="113" text-anchor="middle" font-size="20" font-weight="600">1</text><line x1="1071.68" y1="90" x2="1132.83" y2="90" stroke="#4f917a" stroke-width="3" opacity=".42"/><rect x="1059.68" y="72" width="25" height="22" rx="4" fill="#fffdf5"/><text x="1071.68" y="90" text-anchor="middle" font-size="20" font-weight="600">1</text><line x1="1509.19" y1="113" x2="1516.00" y2="113" stroke="#4f917a" stroke-width="3" opacity=".42"/><rect x="1497.19" y="95" width="25" height="22" rx="4" fill="#fffdf5"/><text x="1509.19" y="113" text-anchor="middle" font-size="20" font-weight="600">0</text><line x1="1514.51" y1="136" x2="1516.51" y2="136" stroke="#4f917a" stroke-width="3" opacity=".42"/><rect x="1502.51" y="118" width="25" height="22" rx="4" fill="#fffdf5"/><text x="1514.51" y="136" text-anchor="middle" font-size="20" font-weight="600">0</text><line x1="68" y1="288" x2="1516" y2="288" stroke="#69766a" stroke-width="1"/><text x="31" y="293" font-size="16">e</text><line x1="68" y1="311" x2="1516" y2="311" stroke="#69766a" stroke-width="1"/><text x="31" y="316" font-size="16">B</text><line x1="68" y1="334" x2="1516" y2="334" stroke="#69766a" stroke-width="1"/><text x="31" y="339" font-size="16">G</text><line x1="68" y1="357" x2="1516" y2="357" stroke="#69766a" stroke-width="1"/><text x="31" y="362" font-size="16">D</text><line x1="68" y1="380" x2="1516" y2="380" stroke="#69766a" stroke-width="1"/><text x="31" y="385" font-size="16">A</text><line x1="68" y1="403" x2="1516" y2="403" stroke="#69766a" stroke-width="1"/><text x="31" y="408" font-size="16">E</text><line x1="68.0" y1="278" x2="68.0" y2="410" stroke="#334435" stroke-width="1.5"/><text x="77.0" y="436" font-size="13" fill="#60705d">1</text><line x1="249.0" y1="278" x2="249.0" y2="410" stroke="#d6dccf" stroke-width="0.7"/><text x="258.0" y="436" font-size="13" fill="#60705d">2</text><line x1="430.0" y1="278" x2="430.0" y2="410" stroke="#d6dccf" stroke-width="0.7"/><text x="439.0" y="436" font-size="13" fill="#60705d">3</text><line x1="611.0" y1="278" x2="611.0" y2="410" stroke="#d6dccf" stroke-width="0.7"/><text x="620.0" y="436" font-size="13" fill="#60705d">4</text><line x1="792.0" y1="278" x2="792.0" y2="410" stroke="#334435" stroke-width="1.5"/><text x="801.0" y="436" font-size="13" fill="#60705d">1</text><line x1="973.0" y1="278" x2="973.0" y2="410" stroke="#d6dccf" stroke-width="0.7"/><text x="982.0" y="436" font-size="13" fill="#60705d">2</text><line x1="1154.0" y1="278" x2="1154.0" y2="410" stroke="#d6dccf" stroke-width="0.7"/><text x="1163.0" y="436" font-size="13" fill="#60705d">3</text><line x1="1335.0" y1="278" x2="1335.0" y2="410" stroke="#d6dccf" stroke-width="0.7"/><text x="1344.0" y="436" font-size="13" fill="#60705d">4</text><line x1="1516.0" y1="278" x2="1516.0" y2="410" stroke="#334435" stroke-width="1.5"/><text x="76.0" y="263" font-size="20" font-weight="600">C</text><text x="752.0" y="263" font-size="13" fill="#60705d">11</text><text x="800.0" y="263" font-size="20" font-weight="600">C</text><text x="1476.0" y="263" font-size="13" fill="#60705d">12</text><line x1="68.00" y1="318" x2="93.47" y2="318" stroke="#4f917a" stroke-width="3" opacity=".42"/><rect x="56.00" y="300" width="25" height="22" rx="4" fill="#fffdf5"/><text x="68.00" y="318" text-anchor="middle" font-size="20" font-weight="600">0</text><line x1="68.00" y1="341" x2="256.76" y2="341" stroke="#4f917a" stroke-width="3" opacity=".42"/><rect x="56.00" y="323" width="25" height="22" rx="4" fill="#fffdf5"/><text x="68.00" y="341" text-anchor="middle" font-size="20" font-weight="600">0</text><line x1="259.08" y1="341" x2="425.54" y2="341" stroke="#4f917a" stroke-width="3" opacity=".42"/><rect x="247.08" y="323" width="25" height="22" rx="4" fill="#fffdf5"/><text x="259.08" y="341" text-anchor="middle" font-size="20" font-weight="600">3</text><line x1="436.17" y1="341" x2="623.02" y2="341" stroke="#4f917a" stroke-width="3" opacity=".42"/><rect x="424.17" y="323" width="25" height="22" rx="4" fill="#fffdf5"/><text x="436.17" y="341" text-anchor="middle" font-size="20" font-weight="600">2</text><line x1="626.62" y1="341" x2="791.39" y2="341" stroke="#4f917a" stroke-width="3" opacity=".42"/><rect x="614.62" y="323" width="25" height="22" rx="4" fill="#fffdf5"/><text x="626.62" y="341" text-anchor="middle" font-size="20" font-weight="600">1</text><line x1="802.22" y1="341" x2="893.94" y2="341" stroke="#4f917a" stroke-width="3" opacity=".42"/><rect x="790.22" y="323" width="25" height="22" rx="4" fill="#fffdf5"/><text x="802.22" y="341" text-anchor="middle" font-size="20" font-weight="600">0</text><line x1="897.91" y1="341" x2="972.65" y2="341" stroke="#4f917a" stroke-width="3" opacity=".42"/><rect x="885.91" y="323" width="25" height="22" rx="4" fill="#fffdf5"/><text x="897.91" y="341" text-anchor="middle" font-size="20" font-weight="600">1</text><line x1="979.10" y1="341" x2="1060.63" y2="341" stroke="#4f917a" stroke-width="3" opacity=".42"/><rect x="967.10" y="323" width="25" height="22" rx="4" fill="#fffdf5"/><text x="979.10" y="341" text-anchor="middle" font-size="20" font-weight="600">0</text><line x1="1064.82" y1="364" x2="1151.45" y2="364" stroke="#4f917a" stroke-width="3" opacity=".42"/><rect x="1052.82" y="346" width="25" height="22" rx="4" fill="#fffdf5"/><text x="1064.82" y="364" text-anchor="middle" font-size="20" font-weight="600">3</text><line x1="1158.11" y1="364" x2="1239.65" y2="364" stroke="#4f917a" stroke-width="3" opacity=".42"/><rect x="1146.11" y="346" width="25" height="22" rx="4" fill="#fffdf5"/><text x="1158.11" y="364" text-anchor="middle" font-size="20" font-weight="600">2</text><line x1="1245.51" y1="364" x2="1332.14" y2="364" stroke="#4f917a" stroke-width="3" opacity=".42"/><rect x="1233.51" y="346" width="25" height="22" rx="4" fill="#fffdf5"/><text x="1245.51" y="364" text-anchor="middle" font-size="20" font-weight="600">3</text><line x1="1339.00" y1="364" x2="1417.14" y2="364" stroke="#4f917a" stroke-width="3" opacity=".42"/><rect x="1327.00" y="346" width="25" height="22" rx="4" fill="#fffdf5"/><text x="1339.00" y="364" text-anchor="middle" font-size="20" font-weight="600">2</text><line x1="1432.78" y1="364" x2="1515.32" y2="364" stroke="#4f917a" stroke-width="3" opacity=".42"/><rect x="1420.78" y="346" width="25" height="22" rx="4" fill="#fffdf5"/><text x="1432.78" y="364" text-anchor="middle" font-size="20" font-weight="600">0</text><text x="26" y="463" font-size="13" fill="#60705d">GuitarSet · CC BY 4.0 · 按原始标注制谱；横向位置表示演奏时刻，绿色线表示延音。</text></g></svg>