<svg xmlns="http://www.w3.org/2000/svg" viewBox="0 0 1540 475" role="img"><title>Singer-songwriter Blues · C# · 演奏 01 · 9–12 — performance tablature</title><rect width="100%" height="100%" fill="#fffdf5"/><g font-family="Arial,sans-serif" fill="#17251c"><text x="26" y="29" font-size="19" font-weight="600">Singer-songwriter Blues · C# · 演奏 01 · 9–12 · 100 BPM · 4/4</text><line x1="68" y1="83" x2="1516" y2="83" stroke="#69766a" stroke-width="1"/><text x="31" y="88" font-size="16">e</text><line x1="68" y1="106" x2="1516" y2="106" stroke="#69766a" stroke-width="1"/><text x="31" y="111" font-size="16">B</text><line x1="68" y1="129" x2="1516" y2="129" stroke="#69766a" stroke-width="1"/><text x="31" y="134" font-size="16">G</text><line x1="68" y1="152" x2="1516" y2="152" stroke="#69766a" stroke-width="1"/><text x="31" y="157" font-size="16">D</text><line x1="68" y1="175" x2="1516" y2="175" stroke="#69766a" stroke-width="1"/><text x="31" y="180" font-size="16">A</text><line x1="68" y1="198" x2="1516" y2="198" stroke="#69766a" stroke-width="1"/><text x="31" y="203" font-size="16">E</text><line x1="68.0" y1="73" x2="68.0" y2="205" stroke="#334435" stroke-width="1.5"/><text x="77.0" y="231" font-size="13" fill="#60705d">1</text><line x1="249.0" y1="73" x2="249.0" y2="205" stroke="#d6dccf" stroke-width="0.7"/><text x="258.0" y="231" font-size="13" fill="#60705d">2</text><line x1="430.0" y1="73" x2="430.0" y2="205" stroke="#d6dccf" stroke-width="0.7"/><text x="439.0" y="231" font-size="13" fill="#60705d">3</text><line x1="611.0" y1="73" x2="611.0" y2="205" stroke="#d6dccf" stroke-width="0.7"/><text x="620.0" y="231" font-size="13" fill="#60705d">4</text><line x1="792.0" y1="73" x2="792.0" y2="205" stroke="#334435" stroke-width="1.5"/><text x="801.0" y="231" font-size="13" fill="#60705d">1</text><line x1="973.0" y1="73" x2="973.0" y2="205" stroke="#d6dccf" stroke-width="0.7"/><text x="982.0" y="231" font-size="13" fill="#60705d">2</text><line x1="1154.0" y1="73" x2="1154.0" y2="205" stroke="#d6dccf" stroke-width="0.7"/><text x="1163.0" y="231" font-size="13" fill="#60705d">3</text><line x1="1335.0" y1="73" x2="1335.0" y2="205" stroke="#d6dccf" stroke-width="0.7"/><text x="1344.0" y="231" font-size="13" fill="#60705d">4</text><line x1="1516.0" y1="73" x2="1516.0" y2="205" stroke="#334435" stroke-width="1.5"/><text x="76.0" y="58" font-size="20" font-weight="600">G#</text><text x="752.0" y="58" font-size="13" fill="#60705d">9</text><text x="800.0" y="58" font-size="20" font-weight="600">F#</text><text x="1476.0" y="58" font-size="13" fill="#60705d">10</text><line x1="68.00" y1="159" x2="75.15" y2="159" stroke="#4f917a" stroke-width="3" opacity=".42"/><rect x="56.00" y="141" width="25" height="22" rx="4" fill="#fffdf5"/><text x="68.00" y="159" text-anchor="middle" font-size="20" font-weight="600">3</text><line x1="75.98" y1="159" x2="168.79" y2="159" stroke="#4f917a" stroke-width="3" opacity=".42"/><rect x="63.98" y="141" width="25" height="22" rx="4" fill="#fffdf5"/><text x="75.98" y="159" text-anchor="middle" font-size="20" font-weight="600">3</text><line x1="169.90" y1="159" x2="238.19" y2="159" stroke="#4f917a" stroke-width="3" opacity=".42"/><rect x="157.90" y="141" width="25" height="22" rx="4" fill="#fffdf5"/><text x="169.90" y="159" text-anchor="middle" font-size="20" font-weight="600">4</text><line x1="245.59" y1="159" x2="534.53" y2="159" stroke="#4f917a" stroke-width="3" opacity=".42"/><rect x="233.59" y="141" width="25" height="22" rx="4" fill="#fffdf5"/><text x="245.59" y="159" text-anchor="middle" font-size="20" font-weight="600">3</text><line x1="340.32" y1="182" x2="518.94" y2="182" stroke="#4f917a" stroke-width="3" opacity=".42"/><rect x="328.32" y="164" width="25" height="22" rx="4" fill="#fffdf5"/><text x="340.32" y="182" text-anchor="middle" font-size="20" font-weight="600">4</text><line x1="521.35" y1="182" x2="549.37" y2="182" stroke="#4f917a" stroke-width="3" opacity=".42"/><rect x="509.35" y="164" width="25" height="22" rx="4" fill="#fffdf5"/><text x="521.35" y="182" text-anchor="middle" font-size="20" font-weight="600">5</text><line x1="549.57" y1="182" x2="682.66" y2="182" stroke="#4f917a" stroke-width="3" opacity=".42"/><rect x="537.57" y="164" width="25" height="22" rx="4" fill="#fffdf5"/><text x="549.57" y="182" text-anchor="middle" font-size="20" font-weight="600">6</text><line x1="702.63" y1="159" x2="884.76" y2="159" stroke="#4f917a" stroke-width="3" opacity=".42"/><rect x="690.63" y="141" width="25" height="22" rx="4" fill="#fffdf5"/><text x="702.63" y="159" text-anchor="middle" font-size="20" font-weight="600">3</text><line x1="887.50" y1="159" x2="973.31" y2="159" stroke="#4f917a" stroke-width="3" opacity=".42"/><rect x="875.50" y="141" width="25" height="22" rx="4" fill="#fffdf5"/><text x="887.50" y="159" text-anchor="middle" font-size="20" font-weight="600">4</text><line x1="975.86" y1="159" x2="1108.95" y2="159" stroke="#4f917a" stroke-width="3" opacity=".42"/><rect x="963.86" y="141" width="25" height="22" rx="4" fill="#fffdf5"/><text x="975.86" y="159" text-anchor="middle" font-size="20" font-weight="600">3</text><line x1="1066.87" y1="182" x2="1143.92" y2="182" stroke="#4f917a" stroke-width="3" opacity=".42"/><rect x="1054.87" y="164" width="25" height="22" rx="4" fill="#fffdf5"/><text x="1066.87" y="182" text-anchor="middle" font-size="20" font-weight="600">4</text><line x1="1145.04" y1="182" x2="1206.33" y2="182" stroke="#4f917a" stroke-width="3" opacity=".42"/><rect x="1133.04" y="164" width="25" height="22" rx="4" fill="#fffdf5"/><text x="1145.04" y="182" text-anchor="middle" font-size="20" font-weight="600">4</text><line x1="1155.45" y1="159" x2="1218.49" y2="159" stroke="#4f917a" stroke-width="3" opacity=".42"/><rect x="1143.45" y="141" width="25" height="22" rx="4" fill="#fffdf5"/><text x="1155.45" y="159" text-anchor="middle" font-size="20" font-weight="600">3</text><line x1="1206.79" y1="182" x2="1261.08" y2="182" stroke="#4f917a" stroke-width="3" opacity=".42"/><rect x="1194.79" y="164" width="25" height="22" rx="4" fill="#fffdf5"/><text x="1206.79" y="182" text-anchor="middle" font-size="20" font-weight="600">6</text><line x1="1252.78" y1="159" x2="1328.08" y2="159" stroke="#4f917a" stroke-width="3" opacity=".42"/><rect x="1240.78" y="141" width="25" height="22" rx="4" fill="#fffdf5"/><text x="1252.78" y="159" text-anchor="middle" font-size="20" font-weight="600">3</text><line x1="1345.76" y1="182" x2="1382.53" y2="182" stroke="#4f917a" stroke-width="3" opacity=".42"/><rect x="1333.76" y="164" width="25" height="22" rx="4" fill="#fffdf5"/><text x="1345.76" y="182" text-anchor="middle" font-size="20" font-weight="600">6</text><line x1="1382.95" y1="182" x2="1431.98" y2="182" stroke="#4f917a" stroke-width="3" opacity=".42"/><rect x="1370.95" y="164" width="25" height="22" rx="4" fill="#fffdf5"/><text x="1382.95" y="182" text-anchor="middle" font-size="20" font-weight="600">4</text><line x1="1391.91" y1="136" x2="1516.00" y2="136" stroke="#4f917a" stroke-width="3" opacity=".42"/><rect x="1379.91" y="118" width="25" height="22" rx="4" fill="#fffdf5"/><text x="1391.91" y="136" text-anchor="middle" font-size="20" font-weight="600">0</text><line x1="1435.25" y1="182" x2="1516.00" y2="182" stroke="#4f917a" stroke-width="3" opacity=".42"/><rect x="1423.25" y="164" width="25" height="22" rx="4" fill="#fffdf5"/><text x="1435.25" y="182" text-anchor="middle" font-size="20" font-weight="600">3</text><line x1="68" y1="288" x2="1516" y2="288" stroke="#69766a" stroke-width="1"/><text x="31" y="293" font-size="16">e</text><line x1="68" y1="311" x2="1516" y2="311" stroke="#69766a" stroke-width="1"/><text x="31" y="316" font-size="16">B</text><line x1="68" y1="334" x2="1516" y2="334" stroke="#69766a" stroke-width="1"/><text x="31" y="339" font-size="16">G</text><line x1="68" y1="357" x2="1516" y2="357" stroke="#69766a" stroke-width="1"/><text x="31" y="362" font-size="16">D</text><line x1="68" y1="380" x2="1516" y2="380" stroke="#69766a" stroke-width="1"/><text x="31" y="385" font-size="16">A</text><line x1="68" y1="403" x2="1516" y2="403" stroke="#69766a" stroke-width="1"/><text x="31" y="408" font-size="16">E</text><line x1="68.0" y1="278" x2="68.0" y2="410" stroke="#334435" stroke-width="1.5"/><text x="77.0" y="436" font-size="13" fill="#60705d">1</text><line x1="249.0" y1="278" x2="249.0" y2="410" stroke="#d6dccf" stroke-width="0.7"/><text x="258.0" y="436" font-size="13" fill="#60705d">2</text><line x1="430.0" y1="278" x2="430.0" y2="410" stroke="#d6dccf" stroke-width="0.7"/><text x="439.0" y="436" font-size="13" fill="#60705d">3</text><line x1="611.0" y1="278" x2="611.0" y2="410" stroke="#d6dccf" stroke-width="0.7"/><text x="620.0" y="436" font-size="13" fill="#60705d">4</text><line x1="792.0" y1="278" x2="792.0" y2="410" stroke="#334435" stroke-width="1.5"/><text x="801.0" y="436" font-size="13" fill="#60705d">1</text><line x1="973.0" y1="278" x2="973.0" y2="410" stroke="#d6dccf" stroke-width="0.7"/><text x="982.0" y="436" font-size="13" fill="#60705d">2</text><line x1="1154.0" y1="278" x2="1154.0" y2="410" stroke="#d6dccf" stroke-width="0.7"/><text x="1163.0" y="436" font-size="13" fill="#60705d">3</text><line x1="1335.0" y1="278" x2="1335.0" y2="410" stroke="#d6dccf" stroke-width="0.7"/><text x="1344.0" y="436" font-size="13" fill="#60705d">4</text><line x1="1516.0" y1="278" x2="1516.0" y2="410" stroke="#334435" stroke-width="1.5"/><text x="76.0" y="263" font-size="20" font-weight="600">C#</text><text x="752.0" y="263" font-size="13" fill="#60705d">11</text><text x="800.0" y="263" font-size="20" font-weight="600">C#</text><text x="1476.0" y="263" font-size="13" fill="#60705d">12</text><line x1="68.00" y1="341" x2="472.76" y2="341" stroke="#4f917a" stroke-width="3" opacity=".42"/><rect x="56.00" y="323" width="25" height="22" rx="4" fill="#fffdf5"/><text x="68.00" y="341" text-anchor="middle" font-size="20" font-weight="600">0</text><line x1="68.00" y1="387" x2="76.56" y2="387" stroke="#4f917a" stroke-width="3" opacity=".42"/><rect x="56.00" y="369" width="25" height="22" rx="4" fill="#fffdf5"/><text x="68.00" y="387" text-anchor="middle" font-size="20" font-weight="600">3</text><line x1="80.54" y1="387" x2="523.59" y2="387" stroke="#4f917a" stroke-width="3" opacity=".42"/><rect x="68.54" y="369" width="25" height="22" rx="4" fill="#fffdf5"/><text x="80.54" y="387" text-anchor="middle" font-size="20" font-weight="600">4</text><line x1="528.74" y1="410" x2="605.79" y2="410" stroke="#4f917a" stroke-width="3" opacity=".42"/><rect x="516.74" y="392" width="25" height="22" rx="4" fill="#fffdf5"/><text x="528.74" y="410" text-anchor="middle" font-size="20" font-weight="600">3</text><line x1="606.70" y1="410" x2="701.26" y2="410" stroke="#4f917a" stroke-width="3" opacity=".42"/><rect x="594.70" y="392" width="25" height="22" rx="4" fill="#fffdf5"/><text x="606.70" y="410" text-anchor="middle" font-size="20" font-weight="600">4</text><line x1="713.06" y1="410" x2="777.85" y2="410" stroke="#4f917a" stroke-width="3" opacity=".42"/><rect x="701.06" y="392" width="25" height="22" rx="4" fill="#fffdf5"/><text x="713.06" y="410" text-anchor="middle" font-size="20" font-weight="600">6</text><line x1="799.82" y1="410" x2="1400.48" y2="410" stroke="#4f917a" stroke-width="3" opacity=".42"/><rect x="787.82" y="392" width="25" height="22" rx="4" fill="#fffdf5"/><text x="799.82" y="410" text-anchor="middle" font-size="20" font-weight="600">4</text><text x="26" y="463" font-size="13" fill="#60705d">GuitarSet · CC BY 4.0 · 按原始标注制谱；横向位置表示演奏时刻，绿色线表示延音。</text></g></svg>